<svg height="512" viewBox="0 0 64 64" width="512" xmlns="http://www.w3.org/2000/svg" xmlns:xlink="http://www.w3.org/1999/xlink"><linearGradient id="linear-gradient" gradientUnits="userSpaceOnUse" x2="65.376" y1="43" y2="43"><stop offset="0" stop-color="#fdcdb6"/><stop offset=".186" stop-color="#fdb5b7"/><stop offset=".52" stop-color="#fe81b9"/><stop offset="1" stop-color="#fdc1f4"/></linearGradient><linearGradient id="linear-gradient-2" x2="65.376" xlink:href="#linear-gradient" y1="55.5" y2="55.5"/><linearGradient id="linear-gradient-3" x2="65.376" xlink:href="#linear-gradient" y1="35" y2="35"/><linearGradient id="linear-gradient-4" x2="65.376" xlink:href="#linear-gradient" y1="56" y2="56"/><linearGradient id="linear-gradient-5" x2="65.376" xlink:href="#linear-gradient" y1="57" y2="57"/><linearGradient id="linear-gradient-6" x2="65.376" xlink:href="#linear-gradient" y1="39" y2="39"/><linearGradient id="linear-gradient-7" x2="65.376" xlink:href="#linear-gradient" y1="32" y2="32"/><linearGradient id="linear-gradient-8" x2="65.376" xlink:href="#linear-gradient" y1="35.5" y2="35.5"/><g id="Gradient_outline" data-name="Gradient outline"><path d="m3 62h12a1 1 0 0 0 1-1v-17a1 1 0 0 0 -.051-.316l-.949-2.847v-3.837a1 1 0 0 0 -1-1h-1v-11a1 1 0 0 0 -1-1h-2a5.006 5.006 0 0 0 -5 5v7h-1a1 1 0 0 0 -1 1v3.837l-.949 2.847a1 1 0 0 0 -.051.316v17a1 1 0 0 0 1 1zm1-2v-9h10v9zm0-15.838.721-2.162h8.558l.721 2.162v.838h-10zm0 2.838h10v2h-10zm3-18a3 3 0 0 1 3-3h1v10h-4zm-2 9h8v2h-8z" fill="url(#linear-gradient)"/><path d="m8 53h-2v4a1 1 0 0 0 1 1h5v-2h-4z" fill="url(#linear-gradient-2)"/><path d="m60 20.586v-3.586a1 1 0 0 0 -1-1h-2v-7a1 1 0 0 0 -1-1h-12a1 1 0 0 0 -1 1v4a1 1 0 0 0 1 1h3v2h-2a1 1 0 0 0 -1 1v3.586l-1.707 1.707a1 1 0 0 0 -.293.707v39h20v-39a1 1 0 0 0 -.293-.707zm-12-8.586h-3v-2h10v6h-6v-3a1 1 0 0 0 -1-1zm-2 6h12v2h-12zm-2 5.414 1.414-1.414h13.172l1.414 1.414v2.586h-16zm0 8.586v-4h7v4zm0 2h12v16h-12zm16 26h-16v-8h14v-12h2zm-2-22v-5a1 1 0 0 0 -1-1h-4v-4h7v10z" fill="url(#linear-gradient-3)"/><path d="m56 56h-4v2h6v-4h-2z" fill="url(#linear-gradient-4)"/><path d="m48 56h2v2h-2z" fill="url(#linear-gradient-5)"/><path d="m46 38h6v4h2v-6h-8z" fill="url(#linear-gradient-6)"/><path d="m13.856 5.841 3.162 9.486.982 8.839v34.834a3 3 0 0 0 3 3h2a3 3 0 0 0 3-3v-34.834l.982-8.839 3.162-9.486-.437-.441c-.077-.078-7.8-7.62-15.414 0zm11.027 10.27-.778 7h-4.205l-.778-7zm-.883 42.889a1 1 0 0 1 -1 1h-2a1 1 0 0 1 -1-1v-29.889h4zm-4-31.889v-2h4v2zm7.844-20.694-2.565 7.694h-1.059l.76-3.8-1.96-.393-.84 4.2h-.36l-.84-4.2-1.96.393.76 3.8h-1.059l-2.572-7.711c5.162-4.7 10.185-1.243 11.695.017z" fill="url(#linear-gradient-7)"/><path d="m35.707 9.293a1 1 0 0 0 -1.414 0l-2 2c-1.625 1.625-3.069 4.317-2.242 7.023l1.949 5.847v34.837a3 3 0 0 0 6 0v-34.837l1.957-5.871c.819-2.682-.625-5.374-2.25-7zm.293 17.707h-2v-2h2zm0 32a1 1 0 0 1 -2 0v-30h2zm2.051-41.316-1.772 5.316h-2.558l-1.764-5.292c-.561-1.835.536-3.787 1.75-5l1.293-1.294 1.293 1.293c1.214 1.214 2.307 3.166 1.758 4.977z" fill="url(#linear-gradient-8)"/></g></svg>